<svg xmlns="http://www.w3.org/2000/svg" width="24" height="24" viewBox="0 0 24 24">
  <path id="tesla-svgrepo-com" d="M12,5.362l2.475-3.026A23.687,23.687,0,0,1,22.946,4.39a7.522,7.522,0,0,1-3.231,2.438c-.146-1.439-1.154-1.79-4.354-1.79L12,24,8.619,5.034c-3.18,0-4.188.354-4.335,1.792A7.486,7.486,0,0,1,1.055,4.4,23.683,23.683,0,0,1,9.525,2.34L12,5.362l0,0h0Zm0-3.9a27.5,27.5,0,0,1,11.328,2.28A9.24,9.24,0,0,0,24,2.348,32.775,32.775,0,0,0,12,0,32.716,32.716,0,0,0,0,2.349a11.854,11.854,0,0,0,.672,1.4A27.522,27.522,0,0,1,12,1.46Z" fill="#fff"/>
</svg>
